<svg t="1593219644321" class="icon" viewBox="0 0 1000 1000" version="1.1" xmlns="http://www.w3.org/2000/svg" p-id="1578" data-spm-anchor-id="a313x.7781069.0.i1" width="200" height="200"><path d="M38.4615 432.9231h185.43076923076924 98.8v-85.63076923076923H38.46153846153846V432.92307692307696zM137.2615 641.2615h86.61538461538461V432.92307692307696l-86.6154 18.7231V641.2615384615385zM544.8769 442.1846h-116.15384615384616v-94.8923076923077h-86.61538461538461v293.96923076923076h86.61538461538461v-113.43076923076924h202.76923076923077V347.2769230769231h-86.61538461538461V442.1846153846154zM544.8769 641.2615h86.61538461538461v-113.43076923076924l-86.6154 18.7231V641.2615384615385zM646.7846 642.1846h101.86153846153847l44.4-61.4769-40.1538-85.4923L646.7846 642.1846zM961.5385 347.2769h-101.86153846153847l-55.1385 76.4154-55.1692-76.4154h-101.84615384615385l106.0923 146.9692 50.9385 70.5538 55.1385 76.4462H961.5384615384615l-106.0769-147L961.5385 347.2769z" fill="#1296db" p-id="1579" data-spm-anchor-id="a313x.7781069.0.i0" class=""></path></svg>